HIERARCHY
ROOT hip
{
  OFFSET 0 0 0
  CHANNELS 6 Xposition Yposition Zposition Zrotation Yrotation Xrotation
  JOINT abdomen
  {
    OFFSET 0 20.6881 -0.73152
    CHANNELS 3 Zrotation Xrotation Yrotation
    JOINT chest
    {
      OFFSET 0 11.7043 -0.48768
      CHANNELS 3 Zrotation Xrotation Yrotation
      JOINT neck
      {
        OFFSET 0 22.1894 -2.19456
        CHANNELS 3 Zrotation Xrotation Yrotation
        JOINT head
        {
          OFFSET -0.24384 7.07133 1.2192
          CHANNELS 3 Zrotation Xrotation Yrotation
          JOINT leftEye
          {
            OFFSET 4.14528 8.04674 8.04672
            CHANNELS 3 Zrotation Xrotation Yrotation
            End Site
            {
              OFFSET 1 0 0
            }
          }
          JOINT rightEye
          {
            OFFSET -3.6576 8.04674 8.04672
            CHANNELS 3 Zrotation Xrotation Yrotation
            End Site
            {
              OFFSET 1 0 0
            }
          }
        }
      }
      JOINT rCollar
      {
        OFFSET -2.68224 19.2634 -4.8768
        CHANNELS 3 Zrotation Xrotation Yrotation
        JOINT rShldr
        {
          OFFSET -8.77824 -1.95073 1.46304
          CHANNELS 3 Zrotation Xrotation Yrotation
          JOINT rForeArm
          {
            OFFSET -28.1742 -1.7115 0.48768
            CHANNELS 3 Zrotation Xrotation Yrotation
            JOINT rHand
            {
              OFFSET -22.5879 0.773209 7.07136
              CHANNELS 3 Zrotation Xrotation Yrotation
              JOINT rThumb1
              {
                OFFSET -1.2192 -0.487915 3.41376
                CHANNELS 3 Zrotation Xrotation Yrotation
                JOINT rThumb2
                {
                  OFFSET -3.37035 -0.52449 3.41376
                  CHANNELS 3 Zrotation Xrotation Yrotation
                  End Site
                  {
                    OFFSET -1.78271 -1.18214 1.43049
                  }
                }
              }
              JOINT rIndex1
              {
                OFFSET -7.75947 0.938293 5.60832
                CHANNELS 3 Zrotation Xrotation Yrotation
                JOINT rIndex2
                {
                  OFFSET -2.54057 -0.884171 1.56538
                  CHANNELS 3 Zrotation Xrotation Yrotation
                  End Site
                  {
                    OFFSET -1.62519 -0.234802 1.16502
                  }
                }
              }
              JOINT rMid1
              {
                OFFSET -8.24714 1.18213 3.41376
                CHANNELS 3 Zrotation Xrotation Yrotation
                JOINT rMid2
                {
                  OFFSET -3.10165 -0.590103 1.0647
                  CHANNELS 3 Zrotation Xrotation Yrotation
                  End Site
                  {
                    OFFSET -2.48547 -0.328903 0.83742
                  }
                }
              }
              JOINT rRing1
              {
                OFFSET -8.82822 0.546677 1.51678
                CHANNELS 3 Zrotation Xrotation Yrotation
                JOINT rRing2
                {
                  OFFSET -2.60934 -0.819778 -0.0198488
                  CHANNELS 3 Zrotation Xrotation Yrotation
                  End Site
                  {
                    OFFSET -2.33842 -0.294052 0.168128
                  }
                }
              }
              JOINT rPinky1
              {
                OFFSET -8.27202 -0.0477905 -0.4584
                CHANNELS 3 Zrotation Xrotation Yrotation
                JOINT rPinky2
                {
                  OFFSET -1.82734 -0.647385 -0.700984
                  CHANNELS 3 Zrotation Xrotation Yrotation
                  End Site
                  {
                    OFFSET -1.69225 -0.51767 -0.607171
                  }
                }
              }
            }
          }
        }
      }
      JOINT lCollar
      {
        OFFSET 2.68224 19.2634 -4.8768
        CHANNELS 3 Zrotation Xrotation Yrotation
        JOINT lShldr
        {
          OFFSET 8.77824 -1.95073 1.46304
          CHANNELS 3 Zrotation Xrotation Yrotation
          JOINT lForeArm
          {
            OFFSET 28.1742 -1.7115 0.48768
            CHANNELS 3 Zrotation Xrotation Yrotation
            JOINT lHand
            {
              OFFSET 22.5879 0.773209 7.07136
              CHANNELS 3 Zrotation Xrotation Yrotation
              JOINT lThumb1
              {
                OFFSET 1.2192 -0.487915 3.41376
                CHANNELS 3 Zrotation Xrotation Yrotation
                JOINT lThumb2
                {
                  OFFSET 3.37035 -0.52449 3.41376
                  CHANNELS 3 Zrotation Xrotation Yrotation
                  End Site
                  {
                    OFFSET 1.78271 -1.18214 1.43049
                  }
                }
              }
              JOINT lIndex1
              {
                OFFSET 7.75947 0.938293 5.60832
                CHANNELS 3 Zrotation Xrotation Yrotation
                JOINT lIndex2
                {
                  OFFSET 2.54057 -0.884171 1.56538
                  CHANNELS 3 Zrotation Xrotation Yrotation
                  End Site
                  {
                    OFFSET 1.62519 -0.234802 1.16502
                  }
                }
              }
              JOINT lMid1
              {
                OFFSET 8.24714 1.18213 3.41376
                CHANNELS 3 Zrotation Xrotation Yrotation
                JOINT lMid2
                {
                  OFFSET 3.10165 -0.590103 1.0647
                  CHANNELS 3 Zrotation Xrotation Yrotation
                  End Site
                  {
                    OFFSET 2.48547 -0.328903 0.83742
                  }
                }
              }
              JOINT lRing1
              {
                OFFSET 8.82822 0.546677 1.51678
                CHANNELS 3 Zrotation Xrotation Yrotation
                JOINT lRing2
                {
                  OFFSET 2.60934 -0.819778 -0.0198488
                  CHANNELS 3 Zrotation Xrotation Yrotation
                  End Site
                  {
                    OFFSET 2.33842 -0.294052 0.168128
                  }
                }
              }
              JOINT lPinky1
              {
                OFFSET 8.27202 -0.0477905 -0.4584
                CHANNELS 3 Zrotation Xrotation Yrotation
                JOINT lPinky2
                {
                  OFFSET 1.82734 -0.647385 -0.700984
                  CHANNELS 3 Zrotation Xrotation Yrotation
                  End Site
                  {
                    OFFSET 1.69225 -0.51767 -0.607171
                  }
                }
              }
            }
          }
        }
      }
    }
  }
  JOINT rButtock
  {
    OFFSET -8.77824 4.35084 1.2192
    CHANNELS 3 Zrotation Xrotation Yrotation
    JOINT rThigh
    {
      OFFSET 0 -1.70687 -2.19456
      CHANNELS 3 Zrotation Xrotation Yrotation
      JOINT rShin
      {
        OFFSET 0 -36.8199 0.73152
        CHANNELS 3 Zrotation Xrotation Yrotation
        JOINT rFoot
        {
          OFFSET 0.73152 -45.1104 -5.12064
          CHANNELS 3 Zrotation Xrotation Yrotation
          End Site
          {
            OFFSET -1.1221 -3.69964 12.103
          }
        }
      }
    }
  }
  JOINT lButtock
  {
    OFFSET 8.77824 4.35084 1.2192
    CHANNELS 3 Zrotation Xrotation Yrotation
    JOINT lThigh
    {
      OFFSET 0 -1.70687 -2.19456
      CHANNELS 3 Zrotation Xrotation Yrotation
      JOINT lShin
      {
        OFFSET 0 -36.8199 0.73152
        CHANNELS 3 Zrotation Xrotation Yrotation
        JOINT lFoot
        {
          OFFSET -0.73152 -45.1104 -5.12064
          CHANNELS 3 Zrotation Xrotation Yrotation
          End Site
          {
            OFFSET 1.1221 -3.69964 12.103
          }
        }
      }
    }
  }
}
MOTION
Frames:	4
Frame Time:	0.00833333
-17.751 81.3022 100.706 0.0 0.0 0.0 -6.43986 0.0161863 -0.17306 -1.77164 0.0626838 -0.305665 7.47425e-14 -1.59028e-15 -2.98177e-16 2.29435e-13 3.18055e-15 -7.96692e-16 -0.0 0.0 0.0 -0.0 0.0 0.0 3.78193e-14 9.7257e-17 -9.93923e-17 8.04444e-13 2.90723e-15 9.93923e-16 1.37499e-11 -4.05759e-12 -1.39944e-13 1.58141e-10 4.65494e-12 -2.67167e-13 3.72858e-10 1.29235e-12 -9.03278e-13 6.43895e-10 2.22957e-12 -1.57915e-12 3.72861e-10 1.2929e-12 -9.00097e-13 7.73091 5.47488 0.417314 3.72858e-10 1.2918e-12 -9.03278e-13 2.90554 0.965183 0.102902 3.72862e-10 1.2923e-12 -9.00892e-13 10.2786 0.731801 0.0259123 3.72851e-10 1.29369e-12 -8.93736e-13 2.22167 -0.733487 -0.20892 3.77214e-14 1.0211e-16 -4.96962e-16 7.99424e-13 2.43511e-15 -5.96354e-16 1.38746e-11 4.19972e-12 -2.00375e-13 1.57929e-10 -3.62474e-12 -1.87653e-13 3.72697e-10 1.25019e-12 -9.00097e-13 6.43646e-10 2.16596e-12 -1.5545e-12 3.7269e-10 1.25195e-12 -8.90555e-13 -7.73091 5.47488 -0.417314 3.72698e-10 1.24996e-12 -9.03278e-13 -2.90554 0.965183 -0.102902 3.7269e-10 1.25075e-12 -8.98507e-13 -10.2786 0.731801 -0.0259123 3.72697e-10 1.25115e-12 -9.06458e-13 -2.22167 -0.733487 0.20892 -2.03217e-16 0.0 -3.88251e-19 -4.48676 -1.96209 0.0560193 -0.0074278 -2.07882 -0.0602758 -0.407957 4.00546 0.125065 2.03217e-16 0.0 3.88251e-19 -5.22637 -14.1797 0.821073 -0.0251474 20.0339 -0.694607 0.627155 -5.88793 0.0569634
-24.2699 80.728 97.2587 -7.1919 -73.2497 2.1211 -4.16523 1.69846 0.188351 -0.897007 -0.996927 -0.295045 0.65538 3.66277 4.2575 -2.19355 -9.59377 7.90329 -0.0 0.0 0.0 -0.0 0.0 0.0 3.4355e-14 2.23199e-13 -1.40165e-13 16.6818 11.5619 -3.31853 -11.1494 -8.04268 12.9982 0.0143177 -2.66546 -0.373165 2.2459e-10 -2.29999e-11 5.04031e-11 3.88012e-10 -3.9852e-11 8.65557e-11 2.24596e-10 -2.30012e-11 5.04057e-11 7.73091 5.47488 0.417314 2.24591e-10 -2.30015e-11 5.04032e-11 2.90554 0.965183 0.102902 2.24595e-10 -2.3001e-11 5.0405e-11 10.2786 0.731801 0.0259123 2.24585e-10 -2.30001e-11 5.04119e-11 2.22167 -0.733487 -0.20892 3.42939e-14 2.23205e-13 -1.40493e-13 8.06806 -16.9328 2.10825 7.0269 -4.05835 -9.87543 -0.104686 -7.22245 0.9867 -3.26017e-11 2.03163e-10 1.51725e-11 -5.45647e-11 3.51626e-10 2.0272e-11 -3.26076e-11 2.03167e-10 1.51821e-11 -7.73091 5.47488 -0.417314 -3.26013e-11 2.03164e-10 1.51693e-11 -2.90554 0.965183 -0.102902 -3.26088e-11 2.03164e-10 1.51731e-11 -10.2786 0.731801 -0.0259123 -3.26003e-11 2.03164e-10 1.51643e-11 -2.22167 -0.733487 0.20892 -2.03217e-16 0.0 -3.88251e-19 -4.70345 -3.35797 2.56844 -0.0784894 9.91133 0.0277274 0.0567855 0.205736 3.47305 2.03217e-16 0.0 3.88251e-19 -3.67867 -14.4105 0.473487 0.0436757 25.2627 -0.605463 0.433642 -7.52262 -0.809673
-24.3886 80.7064 97.2965 -7.3946 -72.6234 2.1688 -1.85255 3.46565 0.564463 0.0366865 -2.12956 -0.286673 0.778407 7.49515 8.83036 -1.54672 -19.1068 17.014 -0.0 0.0 0.0 -0.0 0.0 0.0 2.99864e-14 4.61667e-13 -2.92005e-13 35.9392 23.6622 -7.40554 -18.9676 -15.1142 27.4798 -0.00845218 -5.4552 -0.766479 7.30764e-11 -6.0312e-11 8.4525e-11 1.26763e-10 -1.04505e-10 1.45012e-10 7.30853e-11 -6.03155e-11 8.4527e-11 7.73091 5.47488 0.417314 7.30785e-11 -6.0315e-11 8.45252e-11 2.90554 0.965183 0.102902 7.30813e-11 -6.03145e-11 8.45263e-11 10.2786 0.731801 0.0259123 7.30722e-11 -6.03141e-11 8.45332e-11 2.22167 -0.733487 -0.20892 2.99677e-14 4.61676e-13 -2.9226e-13 18.3466 -34.8957 4.96788 12.9269 -7.91818 -20.4354 0.063613 -14.7663 2.07192 -4.52439e-10 4.22996e-10 8.89621e-12 -7.771e-10 7.31428e-10 3.46053e-12 -4.52444e-10 4.23002e-10 8.90596e-12 -7.73091 5.47488 -0.417314 -4.52439e-10 4.22998e-10 8.89303e-12 -2.90554 0.965183 -0.102902 -4.52446e-10 4.22998e-10 8.89571e-12 -10.2786 0.731801 -0.0259123 -4.52436e-10 4.22997e-10 8.88607e-12 -2.22167 -0.733487 0.20892 -2.03217e-16 0.0 -3.88251e-19 -4.8729 -4.86519 5.25646 -0.196339 22.6091 0.129995 1.0369 -3.7609 7.06599 2.03217e-16 0.0 3.88251e-19 -2.11991 -14.6304 0.104463 0.0940393 30.7305 -0.507199 0.183781 -9.25169 -1.68909
-24.4661 80.6206 97.3446 -7.2889 -71.8108 1.984 0.320174 5.06239 0.91449 0.853427 -3.11615 -0.274078 0.323586 10.7438 12.9777 1.87273 -26.4711 26.3105 -0.0 0.0 0.0 -0.0 0.0 0.0 2.74264e-14 6.69402e-13 -4.20295e-13 54.7489 34.17 -11.815 -22.9475 -19.1001 41.322 -0.0620707 -7.99503 -1.12926 -7.19449e-11 -7.15843e-11 1.53016e-10 -1.23753e-10 -1.24015e-10 2.62825e-10 -7.19337e-11 -7.15895e-11 1.53017e-10 7.73091 5.47488 0.417314 -7.19419e-11 -7.15881e-11 1.53016e-10 2.90554 0.965183 0.102902 -7.19397e-11 -7.15877e-11 1.53017e-10 10.2786 0.731801 0.0259123 -7.1948e-11 -7.15876e-11 1.53023e-10 2.22167 -0.733487 -0.20892 2.74391e-14 6.69412e-13 -4.20485e-13 29.7333 -50.4407 9.52638 17.0312 -10.7295 -30.1309 0.479953 -21.6406 3.15951 -8.43199e-10 6.06989e-10 4.73177e-11 -1.45099e-09 1.05054e-09 6.3925e-11 -8.43203e-10 6.06996e-10 4.73275e-11 -7.73091 5.47488 -0.417314 -8.432e-10 6.06992e-10 4.73146e-11 -2.90554 0.965183 -0.102902 -8.43206e-10 6.06991e-10 4.73164e-11 -10.2786 0.731801 -0.0259123 -8.43194e-10 6.0699e-10 4.73059e-11 -2.22167 -0.733487 0.20892 -2.03217e-16 0.0 -3.88251e-19 -4.76897 -6.10581 7.62361 -0.34664 33.8914 0.243843 2.31857 -7.27581 10.253 2.03217e-16 0.0 3.88251e-19 -0.591936 -14.8706 -0.223838 0.124769 35.7205 -0.415727 -0.104234 -10.7837 -2.5668
